<?xml version="1.0" encoding="UTF-8" standalone="no"?>
<!DOCTYPE svg PUBLIC "-//W3C//DTD SVG 1.1//EN" "http://www.w3.org/Graphics/SVG/1.1/DTD/svg11.dtd">
<svg xmlns="http://www.w3.org/2000/svg" xmlns:xlink="http://www.w3.org/1999/xlink" version="1.1" width="440.88pt" height="236.87999pt" viewBox="0 0 440.88 236.87999">
<g enable-background="new">
<clipPath id="cp0">
<path transform="matrix(.24,0,0,.24,0,0)" d="M 0 0 L 1837.4999 0 L 1837.4999 986.1949 L 0 986.1949 Z " fill-rule="evenodd"/>
</clipPath>
<g clip-path="url(#cp0)">
<path transform="matrix(.7194127,0,0,.7194127,0,0)" d="M 0 0 L 613 0 L 613 329 L 0 329 Z " fill="#ffffff"/>
</g>
<clipPath id="cp1">
<path transform="matrix(.24,0,0,.24,0,0)" d="M 0 0 L 1837.4999 0 L 1837.4999 983.1973 L 0 983.1973 Z " fill-rule="evenodd"/>
</clipPath>
<g clip-path="url(#cp1)">
<path transform="matrix(.7194127,0,0,.7194127,.35970635,.35970635)" stroke-width="1" stroke-linecap="butt" stroke-miterlimit="10" stroke-linejoin="miter" fill="none" stroke="#000000" d="M 221 101 L 221 134.63 "/>
<path transform="matrix(.7194127,0,0,.7194127,.35970635,.35970635)" d="M 221 139.88 L 217.5 132.88 L 221 134.63 L 224.5 132.88 L 221 139.88 Z "/>
<path transform="matrix(.7194127,0,0,.7194127,.35970635,.35970635)" stroke-width="1" stroke-linecap="butt" stroke-miterlimit="10" stroke-linejoin="miter" fill="none" stroke="#000000" d="M 221 139.88 L 217.5 132.88 L 221 134.63 L 224.5 132.88 L 221 139.88 Z "/>
<path transform="matrix(.7194127,0,0,.7194127,.35970635,.35970635)" d="M 161 41 L 281 41 L 281 101 L 161 101 Z " fill="#ffffff"/>
<path transform="matrix(.7194127,0,0,.7194127,.35970635,.35970635)" stroke-width="1" stroke-linecap="butt" stroke-miterlimit="4" stroke-linejoin="miter" fill="none" stroke="#000000" d="M 161 41 L 281 41 L 281 101 L 161 101 Z "/>
<g id="Layer-1" data-name="P">
</g>
<symbol id="font_2_37">
<path d="M .23583985 0 L .23583985 .63134768 L 0 .63134768 L 0 .7158203 L .5673828 .7158203 L .5673828 .63134768 L .3305664 .63134768 L .3305664 0 L .23583985 0 Z "/>
</symbol>
<symbol id="font_2_55">
<path d="M 0 0 L 0 .5185547 L .07910156 .5185547 L .07910156 .4399414 C .09928385 .47672526 .11783854 .50097659 .13476563 .5126953 C .15201824 .52441409 .17089844 .53027346 .19140625 .53027346 C .22102864 .53027346 .2511393 .5208333 .28173829 .5019531 L .25146485 .42041017 C .22998047 .43310548 .2084961 .43945313 .18701172 .43945313 C .16780599 .43945313 .15055339 .43359376 .1352539 .421875 C .11995443 .41048179 .10904948 .39453126 .10253906 .37402345 C .09277344 .34277345 .087890628 .30859376 .087890628 .27148438 L .087890628 0 L 0 0 Z "/>
</symbol>
<symbol id="font_2_44">
<path d="M .36816407 .075683597 C .33561198 .048014326 .30419923 .028483073 .27392579 .017089844 C .24397786 .0056966149 .2117513 0 .1772461 0 C .120279949 0 .0764974 .013834636 .045898439 .041503908 C .0152994799 .069498699 0 .10514323 0 .1484375 C 0 .17382813 .0056966149 .19694011 .017089844 .21777344 C .028808594 .2389323 .043945314 .25585938 .0625 .2685547 C .08138021 .28125 .10253906 .29085288 .12597656 .29736329 C .14322917 .30192057 .16927083 .3063151 .20410156 .31054688 C .2750651 .3190104 .3273112 .32910157 .36083985 .3408203 C .36116538 .3528646 .36132813 .3605143 .36132813 .36376954 C .36132813 .3995768 .35302735 .4248047 .33642579 .43945313 C .31396485 .4593099 .28059898 .46923829 .23632813 .46923829 C .19498699 .46923829 .16438802 .46191407 .14453125 .44726563 C .125 .43294273 .11051432 .4073893 .10107422 .37060548 L .015136719 .38232423 C .022949219 .41910807 .035807294 .44873048 .053710939 .4711914 C .071614589 .49397788 .09749349 .51139327 .13134766 .5234375 C .16520183 .5358073 .20442708 .5419922 .24902344 .5419922 C .29329429 .5419922 .3292643 .5367839 .3569336 .5263672 C .38460288 .5159505 .4049479 .5027669 .41796876 .4868164 C .4309896 .4711914 .44010417 .45133464 .4453125 .4272461 C .4482422 .41227214 .44970704 .3852539 .44970704 .3461914 L .44970704 .2290039 C .44970704 .14729817 .4514974 .09554037 .45507813 .07373047 C .45898438 .052246095 .46647135 .03157552 .47753907 .01171875 L .3857422 .01171875 C .3766276 .029947916 .37076823 .05126953 .36816407 .075683597 M .36083985 .27197267 C .3289388 .2589518 .28108726 .24788411 .21728516 .23876953 C .18115235 .2335612 .15559896 .22770183 .140625 .2211914 C .12565105 .21468099 .114095058 .20507813 .10595703 .19238281 C .09781901 .18001302 .09375 .16617839 .09375 .1508789 C .09375 .1274414 .10253906 .107910159 .12011719 .092285159 C .13802083 .076660159 .1640625 .068847659 .19824219 .068847659 C .23209636 .068847659 .26220704 .076171878 .28857423 .09082031 C .3149414 .10579427 .3343099 .12613933 .3466797 .15185547 C .35611979 .17171224 .36083985 .20100911 .36083985 .2397461 L .36083985 .27197267 Z "/>
</symbol>
<symbol id="font_2_49">
<path d="M .07763672 0 L .07763672 .4501953 L 0 .4501953 L 0 .5185547 L .07763672 .5185547 L .07763672 .57373049 C .07763672 .6085612 .080729167 .6344401 .08691406 .6513672 C .0953776 .6741536 .110188808 .6925456 .13134766 .70654299 C .15283203 .7208659 .18277996 .72802737 .2211914 .72802737 C .24593099 .72802737 .27327476 .72509768 .30322267 .7192383 L .29003907 .6425781 C .2718099 .6458333 .25455729 .64746096 .23828125 .64746096 C .21158855 .64746096 .19270833 .64176437 .18164063 .6303711 C .17057292 .61897787 .16503906 .59765627 .16503906 .56640627 L .16503906 .5185547 L .26611329 .5185547 L .26611329 .4501953 L .16503906 .4501953 L .16503906 0 L .07763672 0 Z "/>
</symbol>
<symbol id="font_2_4c">
<path d="M 0 .6147461 L 0 .7158203 L .087890628 .7158203 L .087890628 .6147461 L 0 .6147461 M 0 0 L 0 .5185547 L .087890628 .5185547 L .087890628 0 L 0 0 Z "/>
</symbol>
<symbol id="font_2_46">
<path d="M .36523438 .20166016 L .45166017 .19042969 C .44222007 .13085938 .41796876 .08414713 .37890626 .05029297 C .34016929 .016764323 .29248048 0 .23583985 0 C .1648763 0 .1077474 .023111979 .064453128 .06933594 C .021484375 .115885417 0 .18245442 0 .26904298 C 0 .32503257 .009277344 .37402345 .027832032 .41601563 C .04638672 .4580078 .07454427 .48942057 .11230469 .5102539 C .15039063 .5314128 .19173177 .5419922 .23632813 .5419922 C .29264323 .5419922 .33870445 .52766928 .37451173 .49902345 C .410319 .47070313 .43326823 .43033854 .44335938 .3779297 L .35791017 .3647461 C .34977214 .3995768 .33528648 .42578126 .31445313 .44335938 C .2939453 .4609375 .26904298 .46972657 .2397461 .46972657 C .19547527 .46972657 .1595052 .45377604 .13183594 .421875 C .104166667 .39029948 .09033203 .34016929 .09033203 .27148438 C .09033203 .20182292 .10367838 .15120442 .1303711 .119628909 C .1570638 .08805338 .19189453 .072265628 .23486328 .072265628 C .2693685 .072265628 .2981771 .082845058 .32128907 .104003909 C .34440104 .12516277 .35904948 .15771485 .36523438 .20166016 Z "/>
</symbol>
<symbol id="font_2_3">
<path d="M -2147483500 -2147483500 Z "/>
</symbol>
<symbol id="font_2_36">
<path d="M 0 .2421875 L .08935547 .25 C .09358724 .2141927 .10335287 .18473308 .118652347 .1616211 C .13427735 .13883464 .15836589 .120279949 .19091797 .10595703 C .22347005 .09195963 .26009117 .08496094 .30078126 .08496094 C .33691407 .08496094 .3688151 .09033203 .39648438 .10107422 C .42415367 .111816409 .44466148 .12646485 .4580078 .14501953 C .4716797 .16389974 .47851563 .18440755 .47851563 .20654297 C .47851563 .2290039 .47200523 .24853516 .45898438 .26513673 C .44596354 .2820638 .42447917 .29622398 .39453126 .3076172 C .37532554 .31510417 .33284507 .32666017 .26708985 .34228517 C .20133464 .3582357 .15527344 .37320964 .12890625 .38720704 C .09472656 .4051107 .06917318 .4272461 .052246095 .45361329 C .03564453 .480306 .02734375 .5100911 .02734375 .54296877 C .02734375 .57910159 .037597658 .61279299 .05810547 .64404299 C .07861328 .67561849 .108561199 .69954428 .14794922 .7158203 C .18733724 .7320964 .2311198 .7402344 .27929688 .7402344 C .33235679 .7402344 .379069 .7316081 .4194336 .71435549 C .4601237 .6974284 .4913737 .6723633 .5131836 .63916018 C .53499349 .60595706 .5467122 .5683594 .54833987 .5263672 L .45751954 .51953127 C .45263673 .5647786 .43603517 .5989583 .40771485 .6220703 C .37972007 .6451823 .33821617 .6567383 .28320313 .6567383 C .22591146 .6567383 .18408203 .6461589 .15771485 .625 C .13167317 .6041667 .118652347 .5789388 .118652347 .5493164 C .118652347 .5236003 .12792969 .5024414 .14648438 .48583985 C .16471355 .46923829 .21223958 .45214845 .2890625 .4345703 C .36621095 .41731773 .41910807 .402181 .4477539 .38916017 C .48942057 .36995445 .5201823 .34554038 .54003909 .31591798 C .5598958 .2866211 .5698242 .25276695 .5698242 .21435547 C .5698242 .17626953 .55891928 .14029949 .5371094 .10644531 C .5152995 .072916667 .48388673 .04671224 .4428711 .027832032 C .402181 .009277344 .35628257 0 .30517579 0 C .24039714 0 .18603516 .0094401049 .14208985 .028320313 C .098470058 .04720052 .0641276 .075520839 .0390625 .11328125 C .014322917 .15136719 .0013020834 .19433594 0 .2421875 Z "/>
</symbol>
<symbol id="font_2_50">
<path d="M 0 0 L 0 .5185547 L .07861328 .5185547 L .07861328 .44580079 C .09488932 .4711914 .11653646 .49153648 .14355469 .50683596 C .17057292 .52246096 .20133464 .53027346 .23583985 .53027346 C .2742513 .53027346 .30566407 .52229818 .33007813 .50634768 C .35481773 .49039714 .37223307 .46809898 .38232423 .43945313 C .42333985 .5 .47672526 .53027346 .54248049 .53027346 C .5939128 .53027346 .63346359 .5159505 .6611328 .4873047 C .68880209 .45898438 .7026367 .4152018 .7026367 .35595704 L .7026367 0 L .6152344 0 L .6152344 .32666017 C .6152344 .3618164 .6123047 .38704429 .6064453 .40234376 C .60091146 .41796876 .59065756 .4305013 .5756836 .4399414 C .56070968 .4493815 .54313156 .45410157 .5229492 .45410157 C .48649089 .45410157 .45621745 .44189454 .4321289 .41748048 C .40804038 .39339195 .3959961 .35465495 .3959961 .30126954 L .3959961 0 L .30810548 0 L .30810548 .33691407 C .30810548 .37597657 .300944 .40527345 .2866211 .4248047 C .2722982 .44433595 .24886067 .45410157 .2163086 .45410157 C .19156902 .45410157 .1686198 .44759117 .14746094 .4345703 C .12662761 .42154948 .11149088 .4025065 .10205078 .3774414 C .09261068 .3523763 .087890628 .3162435 .087890628 .26904298 L .087890628 0 L 0 0 Z "/>
</symbol>
<symbol id="font_2_58">
<path d="M .34179688 .01171875 L .34179688 .087890628 C .30143229 .029296875 .24658203 0 .1772461 0 C .14664714 0 .118001308 .005859375 .091308597 .017578125 C .064941409 .029296875 .045247396 .043945314 .032226564 .061523439 C .01953125 .079427089 .010579427 .10123698 .0053710939 .12695313 C .0017903646 .14420574 0 .17154949 0 .20898438 L 0 .53027346 L .087890628 .53027346 L .087890628 .24267578 C .087890628 .19677735 .08968099 .16585286 .09326172 .14990235 C .09879557 .12679036 .11051432 .108561199 .12841797 .095214847 C .14632161 .08219401 .16845703 .075683597 .19482422 .075683597 C .2211914 .075683597 .24593099 .08235677 .26904298 .095703128 C .29215495 .109375 .308431 .12776692 .3178711 .1508789 C .32763673 .1743164 .33251954 .20817058 .33251954 .2524414 L .33251954 .53027346 L .42041017 .53027346 L .42041017 .01171875 L .34179688 .01171875 Z "/>
</symbol>
<symbol id="font_2_4f">
<path d="M 0 0 L 0 .7158203 L .087890628 .7158203 L .087890628 0 L 0 0 Z "/>
</symbol>
<symbol id="font_2_57">
<path d="M .24023438 .08544922 L .2529297 .0078125 C .22819011 .0026041668 .20605469 0 .18652344 0 C .15462239 0 .12988281 .0050455729 .11230469 .015136719 C .09472656 .025227866 .08235677 .038411458 .07519531 .0546875 C .06803385 .07128906 .064453128 .10595703 .064453128 .1586914 L .064453128 .45703126 L 0 .45703126 L 0 .5253906 L .064453128 .5253906 L .064453128 .6538086 L .15185547 .70654299 L .15185547 .5253906 L .24023438 .5253906 L .24023438 .45703126 L .15185547 .45703126 L .15185547 .1538086 C .15185547 .12874349 .15332031 .11263021 .15625 .10546875 C .1595052 .09830729 .16455078 .09261068 .17138672 .088378909 C .17854817 .08414713 .18863933 .08203125 .20166016 .08203125 C .21142578 .08203125 .22428386 .08317057 .24023438 .08544922 Z "/>
</symbol>
<symbol id="font_2_52">
<path d="M 0 .2709961 C 0 .36702476 .026692709 .43815104 .080078128 .484375 C .12467448 .52278646 .17903646 .5419922 .24316406 .5419922 C .31445313 .5419922 .37272135 .5185547 .41796876 .4716797 C .46321617 .42513023 .48583985 .3606771 .48583985 .2783203 C .48583985 .21158855 .4757487 .15901692 .4555664 .12060547 C .43570964 .08251953 .40657554 .052897138 .36816407 .03173828 C .33007813 .010579427 .28841148 0 .24316406 0 C .17057292 0 .111816409 .02327474 .06689453 .06982422 C .022298178 .116373699 0 .18343099 0 .2709961 M .09033203 .2709961 C .09033203 .20458985 .10481771 .15478516 .13378906 .12158203 C .16276042 .08870443 .19921875 .072265628 .24316406 .072265628 C .28678385 .072265628 .32307945 .08886719 .35205079 .12207031 C .38102214 .15527344 .3955078 .20589192 .3955078 .27392579 C .3955078 .33805339 .38085938 .386556 .3515625 .4194336 C .32259117 .45263673 .28645835 .46923829 .24316406 .46923829 C .19921875 .46923829 .16276042 .45279948 .13378906 .41992188 C .10481771 .38704429 .09033203 .33740235 .09033203 .2709961 Z "/>
</symbol>
<use xlink:href="#font_2_37" transform="matrix(10.071777,0,0,-10.071777,122.83972,48.920064)"/>
<use xlink:href="#font_2_55" transform="matrix(10.071777,0,0,-10.071777,129.03621,48.920064)"/>
<use xlink:href="#font_2_44" transform="matrix(10.071777,0,0,-10.071777,132.09998,49.038095)"/>
<use xlink:href="#font_2_49" transform="matrix(10.071777,0,0,-10.071777,137.4294,48.920064)"/>
<use xlink:href="#font_2_49" transform="matrix(10.071777,0,0,-10.071777,140.04732,48.920064)"/>
<use xlink:href="#font_2_4c" transform="matrix(10.071777,0,0,-10.071777,143.42264,48.920064)"/>
<use xlink:href="#font_2_46" transform="matrix(10.071777,0,0,-10.071777,145.3832,49.038095)"/>
<use xlink:href="#font_2_3" transform="matrix(10.071777,0,0,-10.071777,21628976000,-21628976000)"/>
<use xlink:href="#font_2_36" transform="matrix(10.071777,0,0,-10.071777,153.27805,49.04301)"/>
<use xlink:href="#font_2_4c" transform="matrix(10.071777,0,0,-10.071777,160.2123,48.920064)"/>
<use xlink:href="#font_2_50" transform="matrix(10.071777,0,0,-10.071777,162.44332,48.920064)"/>
<use xlink:href="#font_2_58" transform="matrix(10.071777,0,0,-10.071777,170.81345,49.038095)"/>
<use xlink:href="#font_2_4f" transform="matrix(10.071777,0,0,-10.071777,176.41335,48.920064)"/>
<use xlink:href="#font_2_44" transform="matrix(10.071777,0,0,-10.071777,178.36898,49.038095)"/>
<use xlink:href="#font_2_57" transform="matrix(10.071777,0,0,-10.071777,183.782,48.988916)"/>
<use xlink:href="#font_2_52" transform="matrix(10.071777,0,0,-10.071777,186.73932,49.038095)"/>
<use xlink:href="#font_2_55" transform="matrix(10.071777,0,0,-10.071777,192.65888,48.920064)"/>
<g id="Layer-1" data-name="P">
<g id="Layer-2" data-name="Span">
</g>
</g>
<use xlink:href="#font_2_3" transform="matrix(10.071777,0,0,-10.071777,21628976000,-21628976000)"/>
<g id="Layer-1" data-name="P">
</g>
<symbol id="font_2_b">
<path d="M .17333985 0 C .12483724 .061197919 .08382162 .1328125 .05029297 .21484375 C .016764323 .296875 0 .38183595 0 .46972657 C 0 .5472005 .012532552 .62141928 .037597658 .6923828 C .06689453 .77473959 .11214193 .8567708 .17333985 .93847659 L .23632813 .93847659 C .19694011 .87076827 .17089844 .8224284 .15820313 .79345706 C .13834636 .74853518 .12272135 .70166018 .111328128 .65283206 C .09733073 .59195968 .09033203 .5307617 .09033203 .46923829 C .09033203 .31266276 .13899739 .15625 .23632813 0 L .17333985 0 Z "/>
</symbol>
<symbol id="font_2_38">
<path d="M .46826173 .72802737 L .5629883 .72802737 L .5629883 .31445313 C .5629883 .24251302 .5548503 .18538411 .5385742 .1430664 C .52229818 .100748699 .49283854 .06624349 .4501953 .03955078 C .4078776 .013183594 .35221354 0 .28320313 0 C .21614583 0 .16129558 .011555989 .118652347 .03466797 C .07600912 .05777995 .045572919 .091145839 .02734375 .13476563 C .009114583 .17871094 0 .23860677 0 .31445313 L 0 .72802737 L .09472656 .72802737 L .09472656 .3149414 C .09472656 .25276695 .10042318 .20686849 .111816409 .1772461 C .123535159 .14794922 .14339192 .12532552 .17138672 .109375 C .19970703 .09342448 .23421224 .08544922 .27490235 .08544922 C .3445638 .08544922 .39420573 .10123698 .42382813 .1328125 C .45345054 .16438802 .46826173 .22509766 .46826173 .3149414 L .46826173 .72802737 Z "/>
</symbol>
<symbol id="font_2_30">
<path d="M 0 0 L 0 .7158203 L .14257813 .7158203 L .31201173 .20898438 C .32763673 .16178386 .33902995 .12646485 .3461914 .103027347 C .35432945 .12906902 .36702476 .1673177 .38427735 .21777344 L .55566409 .7158203 L .68310549 .7158203 L .68310549 0 L .5917969 0 L .5917969 .5991211 L .38378907 0 L .29833985 0 L .091308597 .609375 L .091308597 0 L 0 0 Z "/>
</symbol>
<symbol id="font_2_32">
<path d="M 0 .36083985 C 0 .47965495 .031901044 .5725911 .095703128 .63964846 C .1595052 .70703127 .24186199 .74072268 .34277345 .74072268 C .40885417 .74072268 .46842448 .7249349 .5214844 .6933594 C .57454428 .6617839 .6149089 .6176758 .6425781 .56103518 C .67057296 .50472006 .6845703 .44075523 .6845703 .36914063 C .6845703 .29654948 .6699219 .23160808 .640625 .1743164 C .6113281 .11702474 .5698242 .07356771 .5161133 .043945314 C .46240235 .0146484379 .40445964 0 .34228517 0 C .27490235 0 .21468099 .016276041 .1616211 .048828126 C .108561199 .08138021 .068359378 .1258138 .041015626 .1821289 C .013671875 .23844402 0 .2980143 0 .36083985 M .09765625 .359375 C .09765625 .27311198 .12076823 .20507813 .16699219 .15527344 C .21354167 .10579427 .2718099 .08105469 .34179688 .08105469 C .41308595 .08105469 .4716797 .10611979 .5175781 .15625 C .56380209 .2063802 .58691409 .2775065 .58691409 .3696289 C .58691409 .42789714 .57698568 .47867839 .5571289 .52197268 C .53759768 .56559249 .50878909 .5992839 .47070313 .6230469 C .43294273 .64713546 .39046226 .6591797 .34326173 .6591797 C .27620445 .6591797 .21842449 .6360677 .16992188 .58984377 C .12174479 .5439453 .09765625 .4671224 .09765625 .359375 Z "/>
</symbol>
<symbol id="font_2_c">
<path d="M .06298828 0 L 0 0 C .09733073 .15625 .1459961 .31266276 .1459961 .46923829 C .1459961 .5304362 .13899739 .5911458 .125 .6513672 C .11393229 .7001953 .098470058 .7470703 .07861328 .7919922 C .06591797 .82128909 .039713544 .8701172 0 .93847659 L .06298828 .93847659 C .124186199 .8567708 .1694336 .77473959 .19873047 .6923828 C .22379558 .62141928 .23632813 .5472005 .23632813 .46972657 C .23632813 .38183595 .21940105 .296875 .18554688 .21484375 C .15201824 .1328125 .11116537 .061197919 .06298828 0 Z "/>
</symbol>
<use xlink:href="#font_2_b" transform="matrix(10.071777,0,0,-10.071777,141.13135,63.269678)"/>
<use xlink:href="#font_2_36" transform="matrix(10.071777,0,0,-10.071777,144.32787,61.273027)"/>
<use xlink:href="#font_2_38" transform="matrix(10.071777,0,0,-10.071777,151.38509,61.273027)"/>
<use xlink:href="#font_2_30" transform="matrix(10.071777,0,0,-10.071777,158.61264,61.150079)"/>
<use xlink:href="#font_2_32" transform="matrix(10.071777,0,0,-10.071777,166.74179,61.273027)"/>
<use xlink:href="#font_2_c" transform="matrix(10.071777,0,0,-10.071777,174.70059,63.269678)"/>
<path transform="matrix(.7194127,0,0,.7194127,.35970635,.35970635)" stroke-width="1" stroke-linecap="butt" stroke-miterlimit="10" stroke-linejoin="miter" fill="none" stroke="#000000" d="M 221 201 L 221 244.63 "/>
<path transform="matrix(.7194127,0,0,.7194127,.35970635,.35970635)" d="M 221 249.88 L 217.5 242.88 L 221 244.63 L 224.5 242.88 L 221 249.88 Z "/>
<path transform="matrix(.7194127,0,0,.7194127,.35970635,.35970635)" stroke-width="1" stroke-linecap="butt" stroke-miterlimit="10" stroke-linejoin="miter" fill="none" stroke="#000000" d="M 221 249.88 L 217.5 242.88 L 221 244.63 L 224.5 242.88 L 221 249.88 Z "/>
<path transform="matrix(.7194127,0,0,.7194127,.35970635,.35970635)" d="M 161 141 L 281 141 L 281 201 L 161 201 Z " fill="#ffffff"/>
<path transform="matrix(.7194127,0,0,.7194127,.35970635,.35970635)" stroke-width="1" stroke-linecap="butt" stroke-miterlimit="4" stroke-linejoin="miter" fill="none" stroke="#000000" d="M 161 141 L 281 141 L 281 201 L 161 201 Z "/>
<g id="Layer-1" data-name="P">
</g>
<symbol id="font_2_3a">
<path d="M .1899414 0 L 0 .7158203 L .09716797 .7158203 L .20605469 .24658203 C .21777344 .19742839 .22786458 .14860027 .23632813 .100097659 C .25455729 .17659505 .26529948 .22070313 .2685547 .23242188 L .40478517 .7158203 L .51904299 .7158203 L .62158206 .35351563 C .64729818 .26367188 .66585287 .17919922 .6772461 .100097659 C .68636068 .14534505 .6982422 .19726563 .7128906 .25585938 L .8251953 .7158203 L .92041018 .7158203 L .7241211 0 L .6328125 0 L .4819336 .54541018 C .46923829 .5909831 .4617513 .61897787 .45947267 .62939456 C .4519857 .5965169 .44498698 .56852218 .43847657 .54541018 L .2866211 0 L .1899414 0 Z "/>
</symbol>
<symbol id="font_2_48">
<path d="M .38427735 .17871094 L .47509767 .16748047 C .46077476 .11442057 .43424479 .07324219 .3955078 .043945314 C .35677085 .0146484379 .30729167 0 .24707031 0 C .17122396 0 .1110026 .02327474 .06640625 .06982422 C .022135416 .11669922 0 .18229167 0 .26660157 C 0 .35384117 .022460938 .42154948 .06738281 .46972657 C .11230469 .5179036 .17057292 .5419922 .2421875 .5419922 C .31152345 .5419922 .36816407 .5183919 .41210938 .4711914 C .4560547 .42399089 .47802735 .35758464 .47802735 .27197267 C .47802735 .2667643 .4778646 .2589518 .47753907 .24853516 L .09082031 .24853516 C .09407552 .19156902 .110188808 .14794922 .13916016 .11767578 C .16813152 .087402347 .20426433 .072265628 .2475586 .072265628 C .27978517 .072265628 .30729167 .080729167 .33007813 .09765625 C .3528646 .114583339 .370931 .14160156 .38427735 .17871094 M .095703128 .32080079 L .3852539 .32080079 C .38134767 .36442057 .37027995 .3971354 .35205079 .4189453 C .324056 .45279948 .2877604 .46972657 .24316406 .46972657 C .20279949 .46972657 .16878255 .45621745 .14111328 .42919923 C .11376953 .402181 .09863281 .3660482 .095703128 .32080079 Z "/>
</symbol>
<symbol id="font_2_45">
<path d="M .08154297 .01171875 L 0 .01171875 L 0 .72753909 L .087890628 .72753909 L .087890628 .47216798 C .125 .51871749 .17236328 .5419922 .22998047 .5419922 C .2618815 .5419922 .2919922 .53548178 .3203125 .52246096 C .34895835 .5097656 .37239585 .49169923 .390625 .46826173 C .4091797 .44514976 .42366538 .41715495 .43408204 .38427735 C .4444987 .35139976 .44970704 .3162435 .44970704 .2788086 C .44970704 .1899414 .42773438 .12125651 .38378907 .072753909 C .33984376 .024251303 .28710938 0 .22558594 0 C .16438802 0 .116373699 .025553385 .08154297 .076660159 L .08154297 .01171875 M .080566409 .27490235 C .080566409 .21272786 .089029949 .16780599 .10595703 .14013672 C .1336263 .09488932 .1710612 .072265628 .21826172 .072265628 C .2566732 .072265628 .2898763 .08886719 .3178711 .12207031 C .34586589 .15559896 .35986329 .20540364 .35986329 .27148438 C .35986329 .33919273 .34635417 .38916017 .31933595 .42138673 C .29264323 .45361329 .2602539 .46972657 .22216797 .46972657 C .18375652 .46972657 .15055339 .45296226 .122558597 .4194336 C .094563808 .38623048 .080566409 .33805339 .080566409 .27490235 Z "/>
</symbol>
<symbol id="font_2_56">
<path d="M 0 .1665039 L .08691406 .18017578 C .091796878 .14534505 .10530599 .118652347 .1274414 .100097659 C .14990235 .08154297 .18115235 .072265628 .2211914 .072265628 C .261556 .072265628 .2915039 .08040365 .31103517 .09667969 C .3305664 .11328125 .34033204 .13264974 .34033204 .15478516 C .34033204 .17464192 .33170573 .19026692 .31445313 .20166016 C .30240885 .20947266 .27246095 .21940105 .22460938 .23144531 C .16015625 .24772136 .11539713 .26171876 .09033203 .2734375 C .065592449 .28548179 .04671224 .30192057 .033691408 .3227539 C .020996094 .34391276 .0146484379 .3671875 .0146484379 .39257813 C .0146484379 .4156901 .019856772 .43701173 .030273438 .45654298 C .041015626 .47639976 .0555013 .49283854 .07373047 .5058594 C .087402347 .5159505 .10595703 .52441409 .12939453 .53125 C .15315755 .53841146 .17854817 .5419922 .2055664 .5419922 C .24625652 .5419922 .28190104 .5361328 .3125 .52441409 C .34342448 .5126953 .36621095 .49674479 .38085938 .4765625 C .3955078 .45670573 .40559898 .43001304 .4111328 .39648438 L .3251953 .38476563 C .32128907 .41145835 .30989585 .43229167 .29101563 .44726563 C .27246095 .4622396 .24609375 .46972657 .21191406 .46972657 C .17154949 .46972657 .14274089 .46305339 .12548828 .44970704 C .10823568 .4363607 .099609378 .4207357 .099609378 .40283204 C .099609378 .3914388 .1031901 .3811849 .11035156 .3720703 C .11751302 .36263023 .12874349 .35481773 .14404297 .3486328 C .15283203 .3453776 .17871094 .33789063 .22167969 .32617188 C .28385417 .3095703 .32714845 .29589845 .3515625 .28515626 C .3763021 .2747396 .39567057 .2594401 .40966798 .23925781 C .42366538 .21907552 .43066407 .19401042 .43066407 .1640625 C .43066407 .13476563 .42203776 .10709635 .40478517 .08105469 C .38785807 .055338544 .36328126 .03531901 .3310547 .020996094 C .29882813 .0069986979 .26236979 0 .22167969 0 C .15429688 0 .102864589 .0139973959 .06738281 .041992189 C .032226564 .06998698 .009765625 .11149088 0 .1665039 Z "/>
</symbol>
<symbol id="font_2_1d">
<path d="M 0 .41845704 L 0 .5185547 L .100097659 .5185547 L .100097659 .41845704 L 0 .41845704 M 0 0 L 0 .100097659 L .100097659 .100097659 L .100097659 0 L 0 0 Z "/>
</symbol>
<symbol id="font_2_35">
<path d="M 0 0 L 0 .7158203 L .3173828 .7158203 C .3811849 .7158203 .4296875 .7093099 .46289063 .69628909 C .49609376 .68359377 .5226237 .66097006 .54248049 .62841799 C .5623372 .5958659 .5722656 .5598958 .5722656 .5205078 C .5722656 .46972657 .55582687 .42692057 .5229492 .39208985 C .49007163 .35725913 .43929038 .3351237 .37060548 .3256836 C .39567057 .3136393 .41471354 .3017578 .42773438 .29003907 C .45540367 .26464845 .48160807 .23291016 .50634768 .19482422 L .6308594 0 L .51171877 0 L .4169922 .14892578 C .3893229 .19189453 .36653648 .22477214 .3486328 .2475586 C .33072917 .27034507 .31461589 .28629557 .30029298 .29541017 C .28629557 .30452476 .27197267 .3108724 .25732423 .31445313 C .24658203 .31673179 .2290039 .3178711 .20458985 .3178711 L .09472656 .3178711 L .09472656 0 L 0 0 M .09472656 .39990235 L .29833985 .39990235 C .34163413 .39990235 .37548829 .40429688 .39990235 .41308595 C .4243164 .42220054 .4428711 .43652345 .4555664 .4560547 C .46826173 .47591148 .47460938 .49739585 .47460938 .5205078 C .47460938 .554362 .4622396 .58219406 .4375 .6040039 C .41308595 .6258138 .37434898 .63671877 .32128907 .63671877 L .09472656 .63671877 L .09472656 .39990235 Z "/>
</symbol>
<use xlink:href="#font_2_3a" transform="matrix(10.071777,0,0,-10.071777,122.25449,120.86133)"/>
<use xlink:href="#font_2_48" transform="matrix(10.071777,0,0,-10.071777,131.82465,120.979358)"/>
<use xlink:href="#font_2_45" transform="matrix(10.071777,0,0,-10.071777,137.7147,120.979358)"/>
<use xlink:href="#font_2_52" transform="matrix(10.071777,0,0,-10.071777,142.99004,120.979358)"/>
<use xlink:href="#font_2_57" transform="matrix(10.071777,0,0,-10.071777,148.43257,120.930179)"/>
<use xlink:href="#font_2_56" transform="matrix(10.071777,0,0,-10.071777,151.36531,120.979358)"/>
<use xlink:href="#font_2_1d" transform="matrix(10.071777,0,0,-10.071777,157.00118,120.86133)"/>
<use xlink:href="#font_2_3" transform="matrix(10.071777,0,0,-10.071777,21628976000,-21628976000)"/>
<use xlink:href="#font_2_35" transform="matrix(10.071777,0,0,-10.071777,162.48305,120.86133)"/>
<use xlink:href="#font_2_52" transform="matrix(10.071777,0,0,-10.071777,169.29752,120.979358)"/>
<use xlink:href="#font_2_45" transform="matrix(10.071777,0,0,-10.071777,175.222,120.979358)"/>
<use xlink:href="#font_2_52" transform="matrix(10.071777,0,0,-10.071777,180.49732,120.979358)"/>
<use xlink:href="#font_2_57" transform="matrix(10.071777,0,0,-10.071777,185.93987,120.930179)"/>
<use xlink:href="#font_2_4c" transform="matrix(10.071777,0,0,-10.071777,189.2316,120.86133)"/>
<use xlink:href="#font_2_46" transform="matrix(10.071777,0,0,-10.071777,191.19214,120.979358)"/>
<g id="Layer-1" data-name="P">
</g>
<use xlink:href="#font_2_36" transform="matrix(10.071777,0,0,-10.071777,138.175,133.21428)"/>
<use xlink:href="#font_2_4c" transform="matrix(10.071777,0,0,-10.071777,145.10927,133.09134)"/>
<use xlink:href="#font_2_50" transform="matrix(10.071777,0,0,-10.071777,147.34029,133.09134)"/>
<use xlink:href="#font_2_58" transform="matrix(10.071777,0,0,-10.071777,155.7104,133.20937)"/>
<use xlink:href="#font_2_4f" transform="matrix(10.071777,0,0,-10.071777,161.31032,133.09134)"/>
<use xlink:href="#font_2_44" transform="matrix(10.071777,0,0,-10.071777,163.26593,133.20937)"/>
<use xlink:href="#font_2_57" transform="matrix(10.071777,0,0,-10.071777,168.67897,133.16019)"/>
<use xlink:href="#font_2_52" transform="matrix(10.071777,0,0,-10.071777,171.63628,133.20937)"/>
<use xlink:href="#font_2_55" transform="matrix(10.071777,0,0,-10.071777,177.55585,133.09134)"/>
<path transform="matrix(.7194127,0,0,.7194127,.35970635,.35970635)" stroke-width="1" stroke-linecap="butt" stroke-miterlimit="10" stroke-linejoin="miter" fill="none" stroke="#000000" d="M 121 171 L 154.63 171 "/>
<path transform="matrix(.7194127,0,0,.7194127,.35970635,.35970635)" d="M 159.88 171 L 152.88 174.5 L 154.63 171 L 152.88 167.5 L 159.88 171 Z "/>
<path transform="matrix(.7194127,0,0,.7194127,.35970635,.35970635)" stroke-width="1" stroke-linecap="butt" stroke-miterlimit="10" stroke-linejoin="miter" fill="none" stroke="#000000" d="M 159.88 171 L 152.88 174.5 L 154.63 171 L 152.88 167.5 L 159.88 171 Z "/>
<path transform="matrix(.7194127,0,0,.7194127,.35970635,.35970635)" d="M 1 141 L 121 141 L 121 201 L 1 201 Z " fill="#ffffff"/>
<path transform="matrix(.7194127,0,0,.7194127,.35970635,.35970635)" stroke-width="1" stroke-linecap="butt" stroke-miterlimit="4" stroke-linejoin="miter" fill="none" stroke="#000000" d="M 1 141 L 121 141 L 121 201 L 1 201 Z "/>
<g id="Layer-1" data-name="P">
</g>
<symbol id="font_2_39">
<path d="M .27734376 0 L 0 .7158203 L .10253906 .7158203 L .28857423 .19580078 C .3035482 .15413411 .31608073 .11507162 .32617188 .07861328 C .3372396 .11767578 .35009767 .15673828 .3647461 .19580078 L .55810549 .7158203 L .65478518 .7158203 L .37451173 0 L .27734376 0 Z "/>
</symbol>
<symbol id="font_2_4b">
<path d="M 0 0 L 0 .7158203 L .087890628 .7158203 L .087890628 .45898438 C .12890625 .50651046 .18066406 .53027346 .24316406 .53027346 C .28157554 .53027346 .3149414 .5226237 .34326173 .5073242 C .37158204 .49235026 .3917643 .47151695 .4038086 .44482423 C .41617839 .4181315 .42236329 .37939454 .42236329 .32861329 L .42236329 0 L .33447267 0 L .33447267 .32861329 C .33447267 .3725586 .32486979 .40445964 .30566407 .4243164 C .28678385 .4444987 .25992839 .45458985 .22509766 .45458985 C .19905599 .45458985 .17447917 .4477539 .15136719 .43408204 C .12858074 .4207357 .11230469 .4025065 .10253906 .37939454 C .09277344 .35628257 .087890628 .3243815 .087890628 .2836914 L .087890628 0 L 0 0 Z "/>
</symbol>
<use xlink:href="#font_2_39" transform="matrix(10.071777,0,0,-10.071777,23.211598,120.86133)"/>
<use xlink:href="#font_2_48" transform="matrix(10.071777,0,0,-10.071777,29.698256,120.979358)"/>
<use xlink:href="#font_2_4b" transform="matrix(10.071777,0,0,-10.071777,35.593236,120.86133)"/>
<use xlink:href="#font_2_4c" transform="matrix(10.071777,0,0,-10.071777,41.19806,120.86133)"/>
<use xlink:href="#font_2_46" transform="matrix(10.071777,0,0,-10.071777,43.158597,120.979358)"/>
<use xlink:href="#font_2_58" transform="matrix(10.071777,0,0,-10.071777,48.445299,120.979358)"/>
<use xlink:href="#font_2_4f" transform="matrix(10.071777,0,0,-10.071777,54.04521,120.86133)"/>
<use xlink:href="#font_2_44" transform="matrix(10.071777,0,0,-10.071777,56.000829,120.979358)"/>
<use xlink:href="#font_2_55" transform="matrix(10.071777,0,0,-10.071777,61.890893,120.86133)"/>
<g id="Layer-1" data-name="P">
</g>
<symbol id="font_2_26">
<path d="M .53808596 .2631836 L .6328125 .23925781 C .61295577 .16145833 .57714846 .10205078 .5253906 .061035158 C .47395835 .020345053 .41097007 0 .33642579 0 C .25927735 0 .19645183 .015625 .14794922 .046875 C .09977213 .07845052 .06298828 .12402344 .037597658 .18359375 C .012532552 .24316406 0 .3071289 0 .37548829 C 0 .45003257 .014160156 .51497396 .04248047 .5703125 C .071126308 .62597659 .11165365 .66813156 .1640625 .69677737 C .21679688 .7257487 .2747396 .7402344 .33789063 .7402344 C .40950523 .7402344 .46972657 .7220052 .5185547 .6855469 C .5673828 .64908859 .6013997 .59781906 .62060549 .5317383 L .52734377 .5097656 C .5107422 .56184896 .48665367 .59977218 .45507813 .62353518 C .4235026 .64729818 .38378907 .6591797 .3359375 .6591797 C .28092448 .6591797 .23486328 .6459961 .1977539 .6196289 C .16097005 .5932617 .13509114 .55777999 .12011719 .5131836 C .10514323 .46891276 .09765625 .4231771 .09765625 .37597657 C .09765625 .31510417 .10644531 .2618815 .12402344 .2163086 C .14192708 .1710612 .16959636 .13720703 .20703125 .114746097 C .24446614 .092285159 .2849935 .08105469 .32861329 .08105469 C .3816732 .08105469 .42659507 .096354167 .4633789 .12695313 C .5001628 .15755208 .5250651 .20296224 .53808596 .2631836 Z "/>
</symbol>
<symbol id="font_2_51">
<path d="M 0 0 L 0 .5185547 L .07910156 .5185547 L .07910156 .44482423 C .1171875 .50179037 .17220052 .53027346 .24414063 .53027346 C .27539063 .53027346 .30403648 .52457687 .33007813 .5131836 C .3564453 .5021159 .3761393 .48746745 .38916017 .46923829 C .402181 .45100913 .41129557 .42936198 .4165039 .40429688 C .41975913 .38802085 .42138673 .35953776 .42138673 .31884767 L .42138673 0 L .3334961 0 L .3334961 .3154297 C .3334961 .35123698 .33007813 .3779297 .3232422 .3955078 C .31640626 .41341148 .30419923 .42757163 .2866211 .43798829 C .2693685 .44873048 .24902344 .45410157 .22558594 .45410157 C .18815105 .45410157 .15576172 .44222007 .12841797 .41845704 C .10139974 .394694 .087890628 .34960938 .087890628 .28320313 L .087890628 0 L 0 0 Z "/>
</symbol>
<use xlink:href="#font_2_26" transform="matrix(10.071777,0,0,-10.071777,22.556117,133.21428)"/>
<use xlink:href="#font_2_52" transform="matrix(10.071777,0,0,-10.071777,29.660737,133.20937)"/>
<use xlink:href="#font_2_51" transform="matrix(10.071777,0,0,-10.071777,35.590139,133.09134)"/>
<use xlink:href="#font_2_57" transform="matrix(10.071777,0,0,-10.071777,40.703184,133.16019)"/>
<use xlink:href="#font_2_55" transform="matrix(10.071777,0,0,-10.071777,43.980169,133.09134)"/>
<use xlink:href="#font_2_52" transform="matrix(10.071777,0,0,-10.071777,47.01441,133.20937)"/>
<use xlink:href="#font_2_4f" transform="matrix(10.071777,0,0,-10.071777,52.924146,133.09134)"/>
<use xlink:href="#font_2_4f" transform="matrix(10.071777,0,0,-10.071777,55.160085,133.09134)"/>
<use xlink:href="#font_2_48" transform="matrix(10.071777,0,0,-10.071777,57.120618,133.20937)"/>
<use xlink:href="#font_2_55" transform="matrix(10.071777,0,0,-10.071777,63.005765,133.09134)"/>
<path transform="matrix(.7194127,0,0,.7194127,.35970635,.35970635)" stroke-width="1" stroke-linecap="butt" stroke-miterlimit="10" stroke-linejoin="miter" fill="none" stroke="#000000" d="M 281 281 L 319.63 281 "/>
<path transform="matrix(.7194127,0,0,.7194127,.35970635,.35970635)" d="M 324.88 281 L 317.88 284.5 L 319.63 281 L 317.88 277.5 L 324.88 281 Z "/>
<path transform="matrix(.7194127,0,0,.7194127,.35970635,.35970635)" stroke-width="1" stroke-linecap="butt" stroke-miterlimit="10" stroke-linejoin="miter" fill="none" stroke="#000000" d="M 324.88 281 L 317.88 284.5 L 319.63 281 L 317.88 277.5 L 324.88 281 Z "/>
<path transform="matrix(.7194127,0,0,.7194127,.35970635,.35970635)" d="M 161 251 L 281 251 L 281 311 L 161 311 Z " fill="#ffffff"/>
<path transform="matrix(.7194127,0,0,.7194127,.35970635,.35970635)" stroke-width="1" stroke-linecap="butt" stroke-miterlimit="4" stroke-linejoin="miter" fill="none" stroke="#000000" d="M 161 251 L 281 251 L 281 311 L 161 311 Z "/>
<g id="Layer-1" data-name="P">
</g>
<symbol id="font_2_27">
<path d="M 0 0 L 0 .7158203 L .24658203 .7158203 C .3022461 .7158203 .34472657 .71240237 .37402345 .7055664 C .41503907 .6961263 .45003257 .67903646 .4790039 .6542969 C .51676437 .6223958 .5449219 .58154299 .56347659 .5317383 C .58235678 .48225913 .5917969 .4256185 .5917969 .3618164 C .5917969 .30745445 .5854492 .25927735 .5727539 .21728516 C .5600586 .17529297 .54378256 .14046224 .5239258 .11279297 C .50406906 .08544922 .48225913 .063802089 .4584961 .047851564 C .4350586 .032226564 .40657554 .020345053 .37304688 .012207031 C .33984376 .0040690104 .30159507 0 .25830079 0 L 0 0 M .09472656 .084472659 L .2475586 .084472659 C .29475913 .084472659 .33170573 .08886719 .35839845 .09765625 C .38541667 .10644531 .40690104 .1188151 .42285157 .13476563 C .4453125 .15722656 .46272788 .18733724 .47509767 .22509766 C .48779298 .2631836 .49414063 .30924479 .49414063 .36328126 C .49414063 .43815104 .48177085 .49560548 .45703126 .53564456 C .4326172 .5760091 .40283204 .60302737 .36767579 .6166992 C .34228517 .62646487 .30143229 .63134768 .24511719 .63134768 L .09472656 .63134768 L .09472656 .084472659 Z "/>
</symbol>
<use xlink:href="#font_2_27" transform="matrix(10.071777,0,0,-10.071777,125.61761,199.99672)"/>
<use xlink:href="#font_2_44" transform="matrix(10.071777,0,0,-10.071777,132.47634,200.11475)"/>
<use xlink:href="#font_2_57" transform="matrix(10.071777,0,0,-10.071777,137.88936,200.06557)"/>
<use xlink:href="#font_2_44" transform="matrix(10.071777,0,0,-10.071777,140.87619,200.11475)"/>
<use xlink:href="#font_2_3" transform="matrix(10.071777,0,0,-10.071777,21628976000,-21628976000)"/>
<use xlink:href="#font_2_26" transform="matrix(10.071777,0,0,-10.071777,149.41374,200.11966)"/>
<use xlink:href="#font_2_52" transform="matrix(10.071777,0,0,-10.071777,156.51836,200.11475)"/>
<use xlink:href="#font_2_4f" transform="matrix(10.071777,0,0,-10.071777,162.4281,199.99672)"/>
<use xlink:href="#font_2_4f" transform="matrix(10.071777,0,0,-10.071777,164.66403,199.99672)"/>
<use xlink:href="#font_2_48" transform="matrix(10.071777,0,0,-10.071777,166.62456,200.11475)"/>
<use xlink:href="#font_2_46" transform="matrix(10.071777,0,0,-10.071777,172.24907,200.11475)"/>
<use xlink:href="#font_2_57" transform="matrix(10.071777,0,0,-10.071777,177.06858,200.06557)"/>
<use xlink:href="#font_2_4c" transform="matrix(10.071777,0,0,-10.071777,180.36029,199.99672)"/>
<use xlink:href="#font_2_52" transform="matrix(10.071777,0,0,-10.071777,182.26183,200.11475)"/>
<use xlink:href="#font_2_51" transform="matrix(10.071777,0,0,-10.071777,188.19123,199.99672)"/>
<g id="Layer-1" data-name="P">
</g>
<symbol id="font_2_2f">
<path d="M 0 0 L 0 .7158203 L .09472656 .7158203 L .09472656 .084472659 L .44726563 .084472659 L .44726563 0 L 0 0 Z "/>
</symbol>
<symbol id="font_2_24">
<path d="M 0 0 L .27490235 .7158203 L .37695313 .7158203 L .6699219 0 L .5620117 0 L .47851563 .21679688 L .17919922 .21679688 L .10058594 0 L 0 0 M .20654297 .2939453 L .44921876 .2939453 L .37451173 .4921875 C .35172526 .5524089 .3347982 .601888 .32373048 .640625 C .31461589 .59472659 .3017578 .5491536 .28515626 .50390627 L .20654297 .2939453 Z "/>
</symbol>
<symbol id="font_2_47">
<path d="M .36816407 .01171875 L .36816407 .07714844 C .33528648 .025716147 .28694663 0 .22314453 0 C .18180339 0 .14371746 .0113932299 .10888672 .034179689 C .07438151 .056966146 .047526044 .08870443 .028320313 .12939453 C .0094401049 .17041016 0 .21744792 0 .2705078 C 0 .32226563 .008626302 .36914063 .025878907 .4111328 C .04313151 .45345054 .069010417 .48583985 .103515628 .5083008 C .13802083 .5307617 .17659505 .5419922 .21923828 .5419922 C .25048829 .5419922 .2783203 .53531906 .30273438 .52197268 C .32714845 .50895187 .34700523 .49186198 .3623047 .47070313 L .3623047 .72753909 L .44970704 .72753909 L .44970704 .01171875 L .36816407 .01171875 M .09033203 .2705078 C .09033203 .20410156 .10432943 .15445964 .13232422 .12158203 C .16031902 .08870443 .19335938 .072265628 .23144531 .072265628 C .26985679 .072265628 .30240885 .087890628 .32910157 .119140628 C .35611979 .15071614 .3696289 .19873047 .3696289 .2631836 C .3696289 .33414714 .35595704 .38623048 .32861329 .4194336 C .30126954 .45263673 .26757813 .46923829 .22753906 .46923829 C .18847656 .46923829 .15576172 .45328776 .12939453 .42138673 C .10335287 .3894857 .09033203 .33919273 .09033203 .2705078 Z "/>
</symbol>
<symbol id="font_2_2a">
<path d="M .35888673 .29296876 L .35888673 .37695313 L .6621094 .3774414 L .6621094 .111816409 C .6155599 .07470703 .5675456 .04671224 .5180664 .027832032 C .46858726 .009277344 .417806 0 .36572267 0 C .29541017 0 .23144531 .014973958 .17382813 .044921876 C .11653646 .07519531 .07324219 .1188151 .043945314 .17578125 C .0146484379 .23274739 0 .29638673 0 .36669923 C 0 .4363607 .014485677 .50130209 .04345703 .56152346 C .072753909 .6220703 .114746097 .6669922 .1694336 .69628909 C .2241211 .72558596 .28710938 .7402344 .35839845 .7402344 C .41015626 .7402344 .4568685 .7317708 .49853517 .71484377 C .54052737 .6982422 .57340499 .67496749 .59716799 .64501956 C .62093099 .6150716 .6389974 .5760091 .6513672 .52783206 L .56591799 .50439456 C .5551758 .54085287 .5418294 .5694987 .5258789 .59033206 C .5099284 .61116537 .48714195 .6277669 .45751954 .6401367 C .42789714 .65283206 .39501954 .6591797 .35888673 .6591797 C .31559245 .6591797 .27815757 .65250656 .24658203 .63916018 C .21500652 .62613937 .18945313 .6088867 .16992188 .58740237 C .15071614 .56591799 .13574219 .5423177 .125 .51660159 C .106770839 .47233073 .09765625 .4243164 .09765625 .3725586 C .09765625 .3087565 .108561199 .2553711 .1303711 .21240235 C .15250652 .1694336 .18457031 .13753255 .2265625 .11669922 C .2685547 .09586588 .31315104 .08544922 .36035157 .08544922 C .4013672 .08544922 .44140626 .09326172 .48046876 .10888672 C .51953127 .12483724 .5491536 .14176433 .56933596 .15966797 L .56933596 .29296876 L .35888673 .29296876 Z "/>
</symbol>
<symbol id="font_2_33">
<path d="M 0 0 L 0 .7158203 L .27001954 .7158203 C .31754557 .7158203 .35384117 .7135417 .37890626 .7089844 C .4140625 .703125 .44352214 .69189456 .46728517 .67529299 C .4910482 .6590169 .5100911 .6360677 .52441409 .6064453 C .5390625 .57682296 .5463867 .5442708 .5463867 .50878909 C .5463867 .44791667 .52701827 .39632163 .48828126 .3540039 C .44954429 .31201173 .37955729 .29101563 .2783203 .29101563 L .09472656 .29101563 L .09472656 0 L 0 0 M .09472656 .37548829 L .27978517 .37548829 C .34098307 .37548829 .3844401 .3868815 .41015626 .40966798 C .4358724 .43245445 .44873048 .46451823 .44873048 .5058594 C .44873048 .5358073 .44108073 .56136068 .42578126 .58251956 C .41080729 .6040039 .39095054 .61816409 .36621095 .625 C .3502604 .62923178 .32080079 .63134768 .27783204 .63134768 L .09472656 .63134768 L .09472656 .37548829 Z "/>
</symbol>
<use xlink:href="#font_2_b" transform="matrix(10.071777,0,0,-10.071777,119.86371,214.34635)"/>
<use xlink:href="#font_2_2f" transform="matrix(10.071777,0,0,-10.071777,123.345478,212.22675)"/>
<use xlink:href="#font_2_4c" transform="matrix(10.071777,0,0,-10.071777,128.87653,212.22675)"/>
<use xlink:href="#font_2_27" transform="matrix(10.071777,0,0,-10.071777,131.22066,212.22675)"/>
<use xlink:href="#font_2_24" transform="matrix(10.071777,0,0,-10.071777,137.70072,212.22675)"/>
<use xlink:href="#font_2_35" transform="matrix(10.071777,0,0,-10.071777,145.22512,212.22675)"/>
<use xlink:href="#font_2_3" transform="matrix(10.071777,0,0,-10.071777,21628976000,-21628976000)"/>
<use xlink:href="#font_2_44" transform="matrix(10.071777,0,0,-10.071777,154.86904,212.34477)"/>
<use xlink:href="#font_2_51" transform="matrix(10.071777,0,0,-10.071777,160.76894,212.22675)"/>
<use xlink:href="#font_2_47" transform="matrix(10.071777,0,0,-10.071777,166.04918,212.34477)"/>
<use xlink:href="#font_2_3" transform="matrix(10.071777,0,0,-10.071777,21628976000,-21628976000)"/>
<use xlink:href="#font_2_2a" transform="matrix(10.071777,0,0,-10.071777,174.64083,212.34969)"/>
<use xlink:href="#font_2_33" transform="matrix(10.071777,0,0,-10.071777,182.71765,212.22675)"/>
<use xlink:href="#font_2_36" transform="matrix(10.071777,0,0,-10.071777,189.11095,212.34969)"/>
<use xlink:href="#font_2_c" transform="matrix(10.071777,0,0,-10.071777,195.98622,214.34635)"/>
<path transform="matrix(.7194127,0,0,.7194127,.35970635,.35970635)" stroke-width="1" stroke-linecap="butt" stroke-miterlimit="10" stroke-linejoin="miter" fill="none" stroke="#000000" d="M 446 281 L 484.63 281 "/>
<path transform="matrix(.7194127,0,0,.7194127,.35970635,.35970635)" d="M 489.88 281 L 482.88 284.5 L 484.63 281 L 482.88 277.5 L 489.88 281 Z "/>
<path transform="matrix(.7194127,0,0,.7194127,.35970635,.35970635)" stroke-width="1" stroke-linecap="butt" stroke-miterlimit="10" stroke-linejoin="miter" fill="none" stroke="#000000" d="M 489.88 281 L 482.88 284.5 L 484.63 281 L 482.88 277.5 L 489.88 281 Z "/>
<path transform="matrix(.7194127,0,0,.7194127,.35970635,.35970635)" d="M 326 236 L 446 236 L 446 326 L 326 326 Z " fill="#ffffff"/>
<path transform="matrix(.7194127,0,0,.7194127,.35970635,.35970635)" stroke-width="1" stroke-linecap="butt" stroke-miterlimit="4" stroke-linejoin="miter" fill="none" stroke="#000000" d="M 326 236 L 446 236 L 446 326 L 326 326 Z "/>
<g id="Layer-1" data-name="P">
</g>
<symbol id="font_2_4a">
<path d="M .017578125 .16748047 L .103027347 .15478516 C .10660807 .12841797 .11653646 .10921224 .1328125 .09716797 C .15462239 .08089193 .18440755 .072753909 .22216797 .072753909 C .26285807 .072753909 .29427085 .08089193 .31640626 .09716797 C .33854167 .11344401 .35351563 .13623047 .36132813 .16552735 C .3658854 .18343099 .3680013 .22102864 .36767579 .2783203 C .3292643 .23307292 .28141276 .21044922 .2241211 .21044922 C .15283203 .21044922 .09765625 .23616536 .05859375 .28759767 C .01953125 .33902995 0 .40071617 0 .47265626 C 0 .52213546 .008951823 .5677083 .026855469 .609375 C .044759115 .6513672 .07063802 .68375656 .10449219 .70654299 C .13867188 .7293294 .17871094 .74072268 .22460938 .74072268 C .28580729 .74072268 .33626304 .7159831 .37597657 .6665039 L .37597657 .7290039 L .45703126 .7290039 L .45703126 .28076173 C .45703126 .20003255 .44873048 .14290364 .4321289 .109375 C .41585288 .075520839 .3898112 .048828126 .3540039 .029296875 C .31852214 .009765625 .2747396 0 .22265625 0 C .1608073 0 .110839847 .0139973959 .072753909 .041992189 C .03466797 .06966146 .016276041 .11149088 .017578125 .16748047 M .09033203 .4790039 C .09033203 .41097007 .10384115 .36132813 .13085938 .33007813 C .15787761 .29882813 .19173177 .28320313 .23242188 .28320313 C .27278648 .28320313 .30664063 .29866538 .33398438 .32958985 C .36132813 .36083985 .375 .40966798 .375 .47607423 C .375 .5395508 .36083985 .58740237 .33251954 .6196289 C .30452476 .65185549 .27067057 .66796877 .23095703 .66796877 C .19189453 .66796877 .1586914 .65201827 .13134766 .6201172 C .104003909 .5885417 .09033203 .5415039 .09033203 .4790039 Z "/>
</symbol>
<use xlink:href="#font_2_27" transform="matrix(10.071777,0,0,-10.071777,241.52173,193.52202)"/>
<use xlink:href="#font_2_44" transform="matrix(10.071777,0,0,-10.071777,248.38047,193.64005)"/>
<use xlink:href="#font_2_57" transform="matrix(10.071777,0,0,-10.071777,253.79349,193.59087)"/>
<use xlink:href="#font_2_44" transform="matrix(10.071777,0,0,-10.071777,256.7803,193.64005)"/>
<use xlink:href="#font_2_3" transform="matrix(10.071777,0,0,-10.071777,21628976000,-21628976000)"/>
<use xlink:href="#font_2_33" transform="matrix(10.071777,0,0,-10.071777,265.59327,193.52202)"/>
<use xlink:href="#font_2_55" transform="matrix(10.071777,0,0,-10.071777,272.18824,193.52202)"/>
<use xlink:href="#font_2_52" transform="matrix(10.071777,0,0,-10.071777,275.22245,193.64005)"/>
<use xlink:href="#font_2_46" transform="matrix(10.071777,0,0,-10.071777,280.88139,193.64005)"/>
<use xlink:href="#font_2_48" transform="matrix(10.071777,0,0,-10.071777,285.89268,193.64005)"/>
<use xlink:href="#font_2_56" transform="matrix(10.071777,0,0,-10.071777,291.43354,193.64005)"/>
<use xlink:href="#font_2_56" transform="matrix(10.071777,0,0,-10.071777,296.46943,193.64005)"/>
<use xlink:href="#font_2_4c" transform="matrix(10.071777,0,0,-10.071777,301.86433,193.52202)"/>
<use xlink:href="#font_2_51" transform="matrix(10.071777,0,0,-10.071777,304.09538,193.52202)"/>
<use xlink:href="#font_2_4a" transform="matrix(10.071777,0,0,-10.071777,309.35594,195.64162)"/>
<g id="Layer-1" data-name="P">
</g>
<use xlink:href="#font_2_4c" transform="matrix(10.071777,0,0,-10.071777,258.48835,205.75203)"/>
<use xlink:href="#font_2_51" transform="matrix(10.071777,0,0,-10.071777,260.71937,205.75203)"/>
<use xlink:href="#font_2_46" transform="matrix(10.071777,0,0,-10.071777,266.0488,205.87006)"/>
<use xlink:href="#font_2_4f" transform="matrix(10.071777,0,0,-10.071777,271.33549,205.75203)"/>
<use xlink:href="#font_2_58" transform="matrix(10.071777,0,0,-10.071777,273.5714,205.87006)"/>
<use xlink:href="#font_2_47" transform="matrix(10.071777,0,0,-10.071777,278.87135,205.87006)"/>
<use xlink:href="#font_2_4c" transform="matrix(10.071777,0,0,-10.071777,284.79585,205.75203)"/>
<use xlink:href="#font_2_51" transform="matrix(10.071777,0,0,-10.071777,287.02687,205.75203)"/>
<use xlink:href="#font_2_4a" transform="matrix(10.071777,0,0,-10.071777,292.2874,207.87163)"/>
<g id="Layer-1" data-name="P">
</g>
<symbol id="font_2_54">
<path d="M .36132813 0 L .36132813 .25390626 C .34765626 .23470052 .32845054 .21875 .30371095 .20605469 C .27929688 .19335938 .25325523 .18701172 .22558594 .18701172 C .1640625 .18701172 .1110026 .21158855 .06640625 .2607422 C .022135416 .30989585 0 .37727867 0 .46289063 C 0 .51497396 .008951823 .5616862 .026855469 .60302737 C .045084638 .64436849 .07128906 .67561849 .10546875 .69677737 C .13997396 .7182617 .17773438 .7290039 .21875 .7290039 C .2828776 .7290039 .33333335 .70198568 .3701172 .6479492 L .3701172 .71728518 L .44921876 .71728518 L .44921876 0 L .36132813 0 M .09033203 .45947267 C .09033203 .39274089 .10432943 .3426107 .13232422 .30908204 C .16031902 .2758789 .19384766 .25927735 .23291016 .25927735 C .27034507 .25927735 .30257163 .2750651 .32958985 .30664063 C .35660807 .33854167 .3701172 .3868815 .3701172 .45166017 C .3701172 .5206706 .35579429 .5725911 .32714845 .6074219 C .29882813 .6422526 .26546226 .65966799 .22705078 .65966799 C .18896485 .65966799 .15657552 .6433919 .12988281 .61083987 C .103515628 .5786133 .09033203 .52815756 .09033203 .45947267 Z "/>
</symbol>
<symbol id="font_2_5d">
<path d="M 0 0 L 0 .07128906 L .33007813 .4501953 C .29264323 .4482422 .25960288 .44726563 .23095703 .44726563 L .01953125 .44726563 L .01953125 .5185547 L .44335938 .5185547 L .44335938 .46044923 L .16259766 .13134766 L .10839844 .07128906 C .14778646 .07421875 .18473308 .075683597 .21923828 .075683597 L .45898438 .075683597 L .45898438 0 L 0 0 Z "/>
</symbol>
<use xlink:href="#font_2_54" transform="matrix(10.071777,0,0,-10.071777,250.88954,219.98361)"/>
<use xlink:href="#font_2_58" transform="matrix(10.071777,0,0,-10.071777,256.7796,218.10007)"/>
<use xlink:href="#font_2_44" transform="matrix(10.071777,0,0,-10.071777,262.0992,218.10007)"/>
<use xlink:href="#font_2_51" transform="matrix(10.071777,0,0,-10.071777,267.99909,217.98204)"/>
<use xlink:href="#font_2_57" transform="matrix(10.071777,0,0,-10.071777,273.11213,218.05089)"/>
<use xlink:href="#font_2_4c" transform="matrix(10.071777,0,0,-10.071777,276.40388,217.98204)"/>
<use xlink:href="#font_2_5d" transform="matrix(10.071777,0,0,-10.071777,278.1677,217.98204)"/>
<use xlink:href="#font_2_44" transform="matrix(10.071777,0,0,-10.071777,283.3708,218.10007)"/>
<use xlink:href="#font_2_57" transform="matrix(10.071777,0,0,-10.071777,288.7838,218.05089)"/>
<use xlink:href="#font_2_4c" transform="matrix(10.071777,0,0,-10.071777,292.07557,217.98204)"/>
<use xlink:href="#font_2_52" transform="matrix(10.071777,0,0,-10.071777,293.97709,218.10007)"/>
<use xlink:href="#font_2_51" transform="matrix(10.071777,0,0,-10.071777,299.9065,217.98204)"/>
<path transform="matrix(.7194127,0,0,.7194127,.35970635,.35970635)" d="M 326 1 L 446 1 L 446 61 L 326 61 Z " fill="#ffffff"/>
<path transform="matrix(.7194127,0,0,.7194127,.35970635,.35970635)" stroke-width="1" stroke-linecap="butt" stroke-miterlimit="4" stroke-linejoin="miter" fill="none" stroke="#000000" d="M 326 1 L 446 1 L 446 61 L 326 61 Z "/>
<g id="Layer-1" data-name="P">
</g>
<symbol id="font_2_29">
<path d="M 0 0 L 0 .7158203 L .48291017 .7158203 L .48291017 .63134768 L .09472656 .63134768 L .09472656 .40966798 L .43066407 .40966798 L .43066407 .3251953 L .09472656 .3251953 L .09472656 0 L 0 0 Z "/>
</symbol>
<use xlink:href="#font_2_29" transform="matrix(10.071777,0,0,-10.071777,248.84372,25.898858)"/>
<use xlink:href="#font_2_4c" transform="matrix(10.071777,0,0,-10.071777,254.8402,25.898858)"/>
<use xlink:href="#font_2_51" transform="matrix(10.071777,0,0,-10.071777,257.07124,25.898858)"/>
<use xlink:href="#font_2_44" transform="matrix(10.071777,0,0,-10.071777,262.37113,26.016886)"/>
<use xlink:href="#font_2_4f" transform="matrix(10.071777,0,0,-10.071777,268.25135,25.898858)"/>
<use xlink:href="#font_2_3" transform="matrix(10.071777,0,0,-10.071777,21628976000,-21628976000)"/>
<use xlink:href="#font_2_27" transform="matrix(10.071777,0,0,-10.071777,273.42,25.898858)"/>
<use xlink:href="#font_2_44" transform="matrix(10.071777,0,0,-10.071777,280.27876,26.016886)"/>
<use xlink:href="#font_2_57" transform="matrix(10.071777,0,0,-10.071777,285.69178,25.967707)"/>
<use xlink:href="#font_2_44" transform="matrix(10.071777,0,0,-10.071777,288.67863,26.016886)"/>
<use xlink:href="#font_2_56" transform="matrix(10.071777,0,0,-10.071777,294.2244,26.016886)"/>
<use xlink:href="#font_2_48" transform="matrix(10.071777,0,0,-10.071777,299.3193,26.016886)"/>
<use xlink:href="#font_2_57" transform="matrix(10.071777,0,0,-10.071777,304.72743,25.967707)"/>
<path transform="matrix(.7194127,0,0,.7194127,.35970635,.35970635)" stroke-width="1" stroke-linecap="butt" stroke-miterlimit="10" stroke-linejoin="miter" fill="none" stroke="#000000" d="M 386 236 L 386 67.37 "/>
<path transform="matrix(.7194127,0,0,.7194127,.35970635,.35970635)" d="M 386 62.12 L 389.5 69.12 L 386 67.37 L 382.5 69.12 L 386 62.12 Z "/>
<path transform="matrix(.7194127,0,0,.7194127,.35970635,.35970635)" stroke-width="1" stroke-linecap="butt" stroke-miterlimit="10" stroke-linejoin="miter" fill="none" stroke="#000000" d="M 386 62.12 L 389.5 69.12 L 386 67.37 L 382.5 69.12 L 386 62.12 Z "/>
<path transform="matrix(.7194127,0,0,.7194127,.35970635,.35970635)" stroke-width="1" stroke-linecap="butt" stroke-miterlimit="10" stroke-linejoin="miter" fill="none" stroke="#000000" d="M 551 236 L 551 172.37 "/>
<path transform="matrix(.7194127,0,0,.7194127,.35970635,.35970635)" d="M 551 167.12 L 554.5 174.12 L 551 172.37 L 547.5 174.12 L 551 167.12 Z "/>
<path transform="matrix(.7194127,0,0,.7194127,.35970635,.35970635)" stroke-width="1" stroke-linecap="butt" stroke-miterlimit="10" stroke-linejoin="miter" fill="none" stroke="#000000" d="M 551 167.12 L 554.5 174.12 L 551 172.37 L 547.5 174.12 L 551 167.12 Z "/>
<path transform="matrix(.7194127,0,0,.7194127,.35970635,.35970635)" d="M 491 236 L 611 236 L 611 326 L 491 326 Z " fill="#ffffff"/>
<path transform="matrix(.7194127,0,0,.7194127,.35970635,.35970635)" stroke-width="1" stroke-linecap="butt" stroke-miterlimit="4" stroke-linejoin="miter" fill="none" stroke="#000000" d="M 491 236 L 611 236 L 611 326 L 491 326 Z "/>
<g id="Layer-1" data-name="P">
</g>
<use xlink:href="#font_2_2a" transform="matrix(10.071777,0,0,-10.071777,359.14079,193.64496)"/>
<use xlink:href="#font_2_48" transform="matrix(10.071777,0,0,-10.071777,366.80943,193.64005)"/>
<use xlink:href="#font_2_51" transform="matrix(10.071777,0,0,-10.071777,372.7044,193.52202)"/>
<use xlink:href="#font_2_48" transform="matrix(10.071777,0,0,-10.071777,378.00926,193.64005)"/>
<use xlink:href="#font_2_55" transform="matrix(10.071777,0,0,-10.071777,383.8944,193.52202)"/>
<use xlink:href="#font_2_44" transform="matrix(10.071777,0,0,-10.071777,386.95814,193.64005)"/>
<use xlink:href="#font_2_57" transform="matrix(10.071777,0,0,-10.071777,392.37117,193.59087)"/>
<use xlink:href="#font_2_4c" transform="matrix(10.071777,0,0,-10.071777,395.66294,193.52202)"/>
<use xlink:href="#font_2_51" transform="matrix(10.071777,0,0,-10.071777,397.89393,193.52202)"/>
<use xlink:href="#font_2_4a" transform="matrix(10.071777,0,0,-10.071777,403.1545,195.64162)"/>
<use xlink:href="#font_2_3" transform="matrix(10.071777,0,0,-10.071777,21628976000,-21628976000)"/>
<use xlink:href="#font_2_32" transform="matrix(10.071777,0,0,-10.071777,411.71669,193.64496)"/>
<use xlink:href="#font_2_36" transform="matrix(10.071777,0,0,-10.071777,419.51814,193.64496)"/>
<use xlink:href="#font_2_30" transform="matrix(10.071777,0,0,-10.071777,426.53108,193.52202)"/>
<g id="Layer-1" data-name="P">
</g>
<use xlink:href="#font_2_49" transform="matrix(10.071777,0,0,-10.071777,376.05403,205.75203)"/>
<use xlink:href="#font_2_4c" transform="matrix(10.071777,0,0,-10.071777,379.42939,205.75203)"/>
<use xlink:href="#font_2_4f" transform="matrix(10.071777,0,0,-10.071777,381.6407,205.75203)"/>
<use xlink:href="#font_2_48" transform="matrix(10.071777,0,0,-10.071777,383.6012,205.87006)"/>
<use xlink:href="#font_2_56" transform="matrix(10.071777,0,0,-10.071777,389.1421,205.87006)"/>
<use xlink:href="#font_2_3" transform="matrix(10.071777,0,0,-10.071777,21628976000,-21628976000)"/>
<use xlink:href="#font_2_49" transform="matrix(10.071777,0,0,-10.071777,396.7616,205.75203)"/>
<use xlink:href="#font_2_52" transform="matrix(10.071777,0,0,-10.071777,399.80253,205.87006)"/>
<use xlink:href="#font_2_55" transform="matrix(10.071777,0,0,-10.071777,405.7221,205.75203)"/>
<use xlink:href="#font_2_3" transform="matrix(10.071777,0,0,-10.071777,21628976000,-21628976000)"/>
<use xlink:href="#font_2_44" transform="matrix(10.071777,0,0,-10.071777,411.58583,205.87006)"/>
<g id="Layer-1" data-name="P">
</g>
<symbol id="font_2_53">
<path d="M 0 0 L 0 .71728518 L .080078128 .71728518 L .080078128 .64990237 C .098958339 .67626956 .120279949 .69596359 .14404297 .7089844 C .16780599 .72233077 .19661458 .7290039 .23046875 .7290039 C .2747396 .7290039 .3138021 .71761068 .34765626 .6948242 C .3815104 .6720378 .4070638 .6398112 .4243164 .59814456 C .441569 .5568034 .4501953 .51139327 .4501953 .46191407 C .4501953 .40885417 .44059245 .3610026 .42138673 .31835938 C .4025065 .27604167 .37483726 .24348958 .3383789 .22070313 C .3022461 .19824219 .26416017 .18701172 .2241211 .18701172 C .19482422 .18701172 .16845703 .19319661 .14501953 .2055664 C .121907558 .2179362 .102864589 .2335612 .087890628 .2524414 L .087890628 0 L 0 0 M .079589847 .45507813 C .079589847 .38834635 .09309896 .33902995 .12011719 .3071289 C .14713542 .27522788 .17985027 .25927735 .21826172 .25927735 C .25732423 .25927735 .2906901 .27571617 .31835938 .30859376 C .34635417 .34179688 .36035157 .3930664 .36035157 .46240235 C .36035157 .5284831 .3466797 .5779622 .31933595 .61083987 C .29231773 .64371749 .25992839 .66015627 .22216797 .66015627 C .18473308 .66015627 .15152996 .6425781 .122558597 .6074219 C .09391276 .5725911 .079589847 .5218099 .079589847 .45507813 Z "/>
</symbol>
<use xlink:href="#font_2_53" transform="matrix(10.071777,0,0,-10.071777,355.91889,219.98361)"/>
<use xlink:href="#font_2_44" transform="matrix(10.071777,0,0,-10.071777,361.2188,218.10007)"/>
<use xlink:href="#font_2_55" transform="matrix(10.071777,0,0,-10.071777,367.10887,217.98204)"/>
<use xlink:href="#font_2_57" transform="matrix(10.071777,0,0,-10.071777,369.98573,218.05089)"/>
<use xlink:href="#font_2_4c" transform="matrix(10.071777,0,0,-10.071777,373.27748,217.98204)"/>
<use xlink:href="#font_2_46" transform="matrix(10.071777,0,0,-10.071777,375.238,218.10007)"/>
<use xlink:href="#font_2_58" transform="matrix(10.071777,0,0,-10.071777,380.5247,218.10007)"/>
<use xlink:href="#font_2_4f" transform="matrix(10.071777,0,0,-10.071777,386.1246,217.98204)"/>
<use xlink:href="#font_2_44" transform="matrix(10.071777,0,0,-10.071777,388.0802,218.10007)"/>
<use xlink:href="#font_2_55" transform="matrix(10.071777,0,0,-10.071777,393.97029,217.98204)"/>
<use xlink:href="#font_2_3" transform="matrix(10.071777,0,0,-10.071777,21628976000,-21628976000)"/>
<use xlink:href="#font_2_56" transform="matrix(10.071777,0,0,-10.071777,399.77989,218.10007)"/>
<use xlink:href="#font_2_46" transform="matrix(10.071777,0,0,-10.071777,404.89939,218.10007)"/>
<use xlink:href="#font_2_48" transform="matrix(10.071777,0,0,-10.071777,409.91069,218.10007)"/>
<use xlink:href="#font_2_51" transform="matrix(10.071777,0,0,-10.071777,415.80564,217.98204)"/>
<use xlink:href="#font_2_44" transform="matrix(10.071777,0,0,-10.071777,421.10557,218.10007)"/>
<use xlink:href="#font_2_55" transform="matrix(10.071777,0,0,-10.071777,426.99565,217.98204)"/>
<use xlink:href="#font_2_4c" transform="matrix(10.071777,0,0,-10.071777,430.36427,217.98204)"/>
<use xlink:href="#font_2_52" transform="matrix(10.071777,0,0,-10.071777,432.26579,218.10007)"/>
<path transform="matrix(.7194127,0,0,.7194127,.35970635,.35970635)" stroke-width="1" stroke-linecap="butt" stroke-miterlimit="10" stroke-linejoin="miter" fill="none" stroke="#000000" d="M 491 121 L 468.5 121 L 468.5 31 L 452.37 31 "/>
<path transform="matrix(.7194127,0,0,.7194127,.35970635,.35970635)" d="M 447.12 31 L 454.12 27.5 L 452.37 31 L 454.12 34.5 L 447.12 31 Z "/>
<path transform="matrix(.7194127,0,0,.7194127,.35970635,.35970635)" stroke-width="1" stroke-linecap="butt" stroke-miterlimit="10" stroke-linejoin="miter" fill="none" stroke="#000000" d="M 447.12 31 L 454.12 27.5 L 452.37 31 L 454.12 34.5 L 447.12 31 Z "/>
<path transform="matrix(.7194127,0,0,.7194127,.35970635,.35970635)" d="M 491 76 L 611 76 L 611 166 L 491 166 Z " fill="#ffffff"/>
<path transform="matrix(.7194127,0,0,.7194127,.35970635,.35970635)" stroke-width="1" stroke-linecap="butt" stroke-miterlimit="4" stroke-linejoin="miter" fill="none" stroke="#000000" d="M 491 76 L 611 76 L 611 166 L 491 166 Z "/>
<g id="Layer-1" data-name="P">
</g>
<use xlink:href="#font_2_2a" transform="matrix(10.071777,0,0,-10.071777,357.45466,78.53893)"/>
<use xlink:href="#font_2_48" transform="matrix(10.071777,0,0,-10.071777,365.1233,78.53401)"/>
<use xlink:href="#font_2_51" transform="matrix(10.071777,0,0,-10.071777,371.0183,78.415988)"/>
<use xlink:href="#font_2_48" transform="matrix(10.071777,0,0,-10.071777,376.32313,78.53401)"/>
<use xlink:href="#font_2_55" transform="matrix(10.071777,0,0,-10.071777,382.20829,78.415988)"/>
<use xlink:href="#font_2_44" transform="matrix(10.071777,0,0,-10.071777,385.272,78.53401)"/>
<use xlink:href="#font_2_57" transform="matrix(10.071777,0,0,-10.071777,390.68504,78.48483)"/>
<use xlink:href="#font_2_4c" transform="matrix(10.071777,0,0,-10.071777,393.9768,78.415988)"/>
<use xlink:href="#font_2_51" transform="matrix(10.071777,0,0,-10.071777,396.2078,78.415988)"/>
<use xlink:href="#font_2_4a" transform="matrix(10.071777,0,0,-10.071777,401.46839,80.53558)"/>
<use xlink:href="#font_2_3" transform="matrix(10.071777,0,0,-10.071777,21628976000,-21628976000)"/>
<use xlink:href="#font_2_4f" transform="matrix(10.071777,0,0,-10.071777,410.1879,78.415988)"/>
<use xlink:href="#font_2_44" transform="matrix(10.071777,0,0,-10.071777,412.14353,78.53401)"/>
<use xlink:href="#font_2_45" transform="matrix(10.071777,0,0,-10.071777,418.03849,78.53401)"/>
<use xlink:href="#font_2_48" transform="matrix(10.071777,0,0,-10.071777,423.34825,78.53401)"/>
<use xlink:href="#font_2_4f" transform="matrix(10.071777,0,0,-10.071777,429.22355,78.415988)"/>
<use xlink:href="#font_2_56" transform="matrix(10.071777,0,0,-10.071777,431.12504,78.53401)"/>
<g id="Layer-1" data-name="P">
</g>
<symbol id="font_2_5c">
<path d="M .045898439 .0107421879 L .036132814 .09326172 C .055338544 .08805338 .07210287 .08544922 .08642578 .08544922 C .10595703 .08544922 .12158203 .08870443 .13330078 .095214847 C .14501953 .10172526 .15462239 .110839847 .16210938 .122558597 C .16764324 .13134766 .17659505 .15315755 .18896485 .18798828 C .19059246 .1928711 .19319661 .20003255 .19677735 .20947266 L 0 .7290039 L .09472656 .7290039 L .20263672 .42871095 C .21663411 .390625 .22916667 .35058595 .24023438 .30859376 C .25032554 .34895835 .26236979 .38834635 .2763672 .4267578 L .38720704 .7290039 L .47509767 .7290039 L .27783204 .20166016 C .2566732 .14469402 .24023438 .10546875 .22851563 .083984378 C .21289063 .05501302 .19498699 .033854169 .17480469 .020507813 C .15462239 .0068359377 .13053386 0 .10253906 0 C .08561198 0 .06673177 .0035807293 .045898439 .0107421879 Z "/>
</symbol>
<use xlink:href="#font_2_58" transform="matrix(10.071777,0,0,-10.071777,354.77513,90.76402)"/>
<use xlink:href="#font_2_56" transform="matrix(10.071777,0,0,-10.071777,360.04063,90.76402)"/>
<use xlink:href="#font_2_4c" transform="matrix(10.071777,0,0,-10.071777,365.43553,90.645999)"/>
<use xlink:href="#font_2_51" transform="matrix(10.071777,0,0,-10.071777,367.66654,90.645999)"/>
<use xlink:href="#font_2_4a" transform="matrix(10.071777,0,0,-10.071777,372.92713,92.765598)"/>
<use xlink:href="#font_2_3" transform="matrix(10.071777,0,0,-10.071777,21628976000,-21628976000)"/>
<use xlink:href="#font_2_55" transform="matrix(10.071777,0,0,-10.071777,381.65653,90.645999)"/>
<use xlink:href="#font_2_44" transform="matrix(10.071777,0,0,-10.071777,384.72026,90.76402)"/>
<use xlink:href="#font_2_5c" transform="matrix(10.071777,0,0,-10.071777,390.11854,92.765598)"/>
<use xlink:href="#font_2_3" transform="matrix(10.071777,0,0,-10.071777,21628976000,-21628976000)"/>
<use xlink:href="#font_2_57" transform="matrix(10.071777,0,0,-10.071777,397.96913,90.71484)"/>
<use xlink:href="#font_2_55" transform="matrix(10.071777,0,0,-10.071777,401.24617,90.645999)"/>
<use xlink:href="#font_2_44" transform="matrix(10.071777,0,0,-10.071777,404.30989,90.76402)"/>
<use xlink:href="#font_2_46" transform="matrix(10.071777,0,0,-10.071777,409.9393,90.76402)"/>
<use xlink:href="#font_2_4c" transform="matrix(10.071777,0,0,-10.071777,415.25059,90.645999)"/>
<use xlink:href="#font_2_51" transform="matrix(10.071777,0,0,-10.071777,417.48158,90.645999)"/>
<use xlink:href="#font_2_4a" transform="matrix(10.071777,0,0,-10.071777,422.74217,92.765598)"/>
<use xlink:href="#font_2_3" transform="matrix(10.071777,0,0,-10.071777,21628976000,-21628976000)"/>
<use xlink:href="#font_2_4c" transform="matrix(10.071777,0,0,-10.071777,431.48628,90.645999)"/>
<use xlink:href="#font_2_51" transform="matrix(10.071777,0,0,-10.071777,433.7173,90.645999)"/>
<g id="Layer-1" data-name="P">
</g>
<use xlink:href="#font_2_30" transform="matrix(10.071777,0,0,-10.071777,382.02503,102.876018)"/>
<use xlink:href="#font_2_44" transform="matrix(10.071777,0,0,-10.071777,390.0312,102.99404)"/>
<use xlink:href="#font_2_57" transform="matrix(10.071777,0,0,-10.071777,395.4442,102.94486)"/>
<use xlink:href="#font_2_4f" transform="matrix(10.071777,0,0,-10.071777,398.71138,102.876018)"/>
<use xlink:href="#font_2_44" transform="matrix(10.071777,0,0,-10.071777,400.667,102.99404)"/>
<use xlink:href="#font_2_45" transform="matrix(10.071777,0,0,-10.071777,406.56196,102.99404)"/>
</g>
</g>
</svg>
